<?xml version="1.0" standalone="no"?><!DOCTYPE svg PUBLIC "-//W3C//DTD SVG 1.1//EN" "http://www.w3.org/Graphics/SVG/1.1/DTD/svg11.dtd"><svg t="1576677176401" class="icon" viewBox="0 0 1024 1024" version="1.1" xmlns="http://www.w3.org/2000/svg" p-id="1809" xmlns:xlink="http://www.w3.org/1999/xlink" width="128" height="128"><defs><style type="text/css"></style></defs><path d="M873.1 99H160.2c-15.3 0-27.2 12.4-27.2 27.7v776.7c0 15.3 11.9 27.7 27.2 27.7h712.7c15.3 0 28.1-12.4 28.1-27.7V126.7c0-15.3-12.6-27.7-27.9-27.7zM829 859H205V171h624v688z" p-id="1810"></path><path d="M313 553h416c19.9 0 36-16.1 36-36s-16.1-36-36-36H313c-19.9 0-36 16.1-36 36s16.1 36 36 36zM657 660H321c-19.9 0-36 16.1-36 36s16.1 36 36 36h336c19.9 0 36-16.1 36-36s-16.1-36-36-36zM339 367.8c24.3 0 44-19.7 44-44s-19.7-44-44-44-44 19.7-44 44 19.7 44 44 44zM694 370.8c24.3 0 44-19.7 44-44s-19.7-44-44-44-44 19.7-44 44 19.7 44 44 44zM516.5 363.8c24.3 0 44-19.7 44-44s-19.7-44-44-44-44 19.7-44 44 19.7 44 44 44z" p-id="1811"></path></svg>