<?xml version="1.0" standalone="no"?><!DOCTYPE svg PUBLIC "-//W3C//DTD SVG 1.1//EN" "http://www.w3.org/Graphics/SVG/1.1/DTD/svg11.dtd"><svg t="1566920332483" class="icon" viewBox="0 0 1024 1024" version="1.1" xmlns="http://www.w3.org/2000/svg" p-id="1988" xmlns:xlink="http://www.w3.org/1999/xlink" width="200" height="200"><defs><style type="text/css"></style></defs><path d="M475.566414 73.137281a475.360334 475.360334 0 1 0 475.296346 475.296347H475.630401V73.137281z m395.568392 548.433628a402.926911 402.926911 0 0 1-395.568392 329.085771 402.670962 402.670962 0 0 1-402.223053-402.223052A402.862924 402.862924 0 0 1 402.429133 152.929223v468.641686h468.705673zM548.639708 0v475.360334H1024.000041A475.360334 475.360334 0 0 0 548.639708 0z m73.137281 79.791942a403.310834 403.310834 0 0 1 322.495098 322.431111h-322.495098v-322.495098z" p-id="1989" fill="#ffffff"></path></svg>